<svg width="20" height="20" viewBox="0 0 20 20" xmlns="http://www.w3.org/2000/svg">
<path d="M10.0049 20.0026C4.48204 20.0026 0.004879 15.5255 0.004879 10.0026C0.004879 4.47984 4.48204 0.00268555 10.0049 0.00268555C15.5277 0.00268555 20.0049 4.47984 20.0049 10.0026C20.0049 15.5255 15.5277 20.0026 10.0049 20.0026ZM10.0049 18.0026C14.4232 18.0026 18.0049 14.4209 18.0049 10.0026C18.0049 5.58441 14.4232 2.00269 10.0049 2.00269C5.5866 2.00269 2.00488 5.58441 2.00488 10.0026C2.00488 14.4209 5.5866 18.0026 10.0049 18.0026ZM5.00488 11.0026H14.0049V13.0026H10.0049V16.0026L5.00488 11.0026ZM10.0049 7.00269V4.00269L15.0049 9.00264H6.00488V7.00269H10.0049Z" fill="white"/>
</svg>
